<svg xmlns="http://www.w3.org/2000/svg" xmlns:xlink="http://www.w3.org/1999/xlink" width="236.772" height="219.373" viewBox="0 0 236.772 219.373"><defs><style>.a{fill:url(#a);}.b{fill:#f0c4a3;}.c{fill:#d6a18a;}.d{fill:#f0cea3;}.e{fill:#413d5c;}.f{fill:#f0a890;}.g{fill:#61152e;}.h{fill:#282538;}.i{fill:#fbd3b5;}.j{fill:#851d3f;}.k{fill:none;stroke:#61152e;stroke-linecap:round;stroke-miterlimit:10;}.l{fill:#fff;}.m{fill:#542222;}.n{fill:#db9084;}.o{fill:#731937;}.p{fill:#d63546;}.q{fill:#6b6691;}.r{fill:#ffbe3d;}.s{fill:#3e5db5;}.t{fill:#2d2d33;}.u{fill:#51535e;}</style><linearGradient id="a" x1="0.294" y1="0.209" x2="0.962" y2="0.87" gradientUnits="objectBoundingBox"><stop offset="0" stop-color="#67c0fc"/><stop offset="1" stop-color="#ff81f6"/></linearGradient></defs><g transform="translate(-69.228 -522.731)"><path class="a" d="M233.132,125.173c-9.129,19.647-13.594,34.184-15.728,45.2a103.244,103.244,0,0,0-1.786,13.545c-.1,1.042-.149,1.985-.149,2.927-.1,2.431-.149,4.564-.149,6.549,0,6.152.05,10.27-2.481,14.09a24.956,24.956,0,0,1-7.789,7.839,26.1,26.1,0,0,1-9.972,3.572c-7.343,1.141-15.976.05-25.7-1.538l-1.885-.347c-17.365-2.878-38.153-7.095-61.571-3.324-54.675,8.782-30.165-18.8-76.505-11.51-10.369,1.637-17.365-2.282-21.88-8.782a33.142,33.142,0,0,1-3.523-6.549,29.224,29.224,0,0,1-1.042-2.927A59.587,59.587,0,0,1,.292,170.371,78.489,78.489,0,0,1,.54,154.2C4.361,124.081,38,126.016,16.764,94.511-6.554,59.881,60.97,81.016,93.269,11.9,114.851-34.188,261.511,64.147,233.132,125.173Z" transform="translate(69.238 522.739)"/><path class="b" d="M218.646,370.7c-.1,1.042-.149,1.985-.149,2.927-.1,2.431-.149,4.565-.149,6.549,0,6.152.05,10.27-2.481,14.09a24.956,24.956,0,0,1-7.789,7.839,26.1,26.1,0,0,1-9.972,3.572c-7.343,1.141-15.976.05-25.7-1.538l-1.885-.347c-17.365-2.878-38.153-7.095-61.571-3.324-54.675,8.782-30.165-18.8-76.505-11.51-10.369,1.637-17.365-2.282-21.88-8.782a33.143,33.143,0,0,1-3.523-6.549A29.224,29.224,0,0,1,6,370.7Z" transform="translate(66.21 335.955)"/><path class="c" d="M218.646,370.7c-.1,1.042-.149,1.985-.149,2.927-.1,2.431-.149,4.565-.149,6.549H10.565a33.142,33.142,0,0,1-3.523-6.549A29.223,29.223,0,0,1,6,370.7Z" transform="translate(66.21 335.955)"/><path class="d" d="M217.712,343.4a103.248,103.248,0,0,0-1.786,13.545c-.1,1.042-.149,1.985-.149,2.927H4.321a29.22,29.22,0,0,1-1.042-2.927A59.587,59.587,0,0,1,.6,343.4Z" transform="translate(68.931 349.71)"/><path class="c" d="M289.676,371.83c-.447,3.969-1.24,11.51-1.786,16.571a26.1,26.1,0,0,1-9.972,3.572c-7.343,1.141-15.976.05-25.7-1.538l-1.885-.347c.893-5.8,2.58-17.266,2.332-19a8.784,8.784,0,0,0-2.828-4.614c-1.34-1.34-4.316-2.133-7.194-4.068a13.247,13.247,0,0,1-2.778-2.481c-.695-.893-1.389-1.885-2.084-2.927L235.7,353.82c-2.481-3.622-7.839-6.1-9.03-6.6s-6.45-.447-8.186-.347-3.225-.744-5.011-.943-31.108-.149-37.31-.3A42.471,42.471,0,0,1,164.4,343.5H279.009s6.152,9.526,8.087,13.5l.2.447c.347.794.695,1.588.992,2.481a24.41,24.41,0,0,1,1.538,6.549A28.279,28.279,0,0,1,289.676,371.83Z" transform="translate(-13.601 349.66)"/><path class="e" d="M340.633,343.143a9.169,9.169,0,0,0-.2,1.141c-1.34,7.045-1.191,6.152-1.935,8.633s-3.969,11.858-5.309,15.728c-7.343,1.141-15.976.05-25.7-1.538.645-3.374,1.588-8.732,1.985-12.056a55.271,55.271,0,0,1,2.183-9.427s-1.637-.893-1.737-2.133v-.347a11.835,11.835,0,0,1,1.141-3.324s-.447.2-1.141-.893-.695-1.836-1.191-2.332l-.149-.149-.695-.5-2.927-1.985-.4-.3-3.473-2.332-3.076-2.133-1.588-1.042-.943-.695-1.34-.893-.893-.6-2.382-1.637-.843-.546-2.878-1.985-.992-.645-1.439-.992h-.05l-.695-.446-1.141-.794-2.63-1.786-2.481-1.687-3.622-2.431V297.2h39.046l1.191,1.488c3.076,3.87,11.362,14.239,16.869,21.433h0c1.935,2.481,3.523,4.614,4.416,5.954a32.4,32.4,0,0,1,4.068,7.541,16.024,16.024,0,0,1,.794,2.927A20.492,20.492,0,0,1,340.633,343.143Z" transform="translate(-68.875 372.988)"/><path class="f" d="M174.09,261.4s-19.25,11.213-26.99,14.19a18.307,18.307,0,0,0,5.309,5.557c11.114-.695,28.33-9.873,28.33-9.873S180.093,263.484,174.09,261.4Z" transform="translate(-4.885 391.026)"/><path class="g" d="M214.44,162.691s-2.381,2.481-2.332,7.988,1.588,31.009,1.389,31.753-1.24.3-1.24,1.092a7.789,7.789,0,0,0,.05,1.092s-1.141-.05-1.588.6-.546,1.389-1.538,1.637-1.439-.695-1.786-.2a9.627,9.627,0,0,0-.893,1.687s-.149-.447-1.24.248-3.126,2.183-3.523,2.431a.447.447,0,0,0-.248.5s3.622,3.126,4.664,6.6,1.092,3.721,1.092,3.721.05.248.992,0a25.155,25.155,0,0,0,4.912-2.878c1.389.4,3.275.248,3.92-.794a5.251,5.251,0,0,1,2.58-2.133,39.839,39.839,0,0,0,4.813-2.282c1.588-.943,4.961-2.183,4.912-4.813s-2.183-34.829-4.366-41.577S214.44,162.691,214.44,162.691Z" transform="translate(-32.285 440.915)"/><path class="h" d="M175.9,291.2h33.44l12.106,5.9-4.416,3.82H175.9Z" transform="translate(-19.396 376.011)"/><path class="i" d="M256.178,118.023c3.622,5.259,6.7,10.369,18.655,13.842v12.5H240.5V118.023l10.816-3.523Z" transform="translate(-51.945 465.043)"/><path class="e" d="M243.945,160.637a10.89,10.89,0,0,0,7.839,2.53C256.8,162.92,262.9,159,262.9,159v24.013H243.3Z" transform="translate(-53.356 442.621)"/><path class="j" d="M231.539,132.924l-.943,1.786a4.168,4.168,0,0,0-.149,3.671c-1.885,1.885-3.771,2.233-4.267,4.465s-1.141,11.56,2.034,21.88,8.137,24.162,8.137,24.906-1.34,3.87-1.488,6.847a12.7,12.7,0,0,1-1.389,5.408,9.661,9.661,0,0,1-2.431,3.026c-.5.546-.1,1.389,1.24,1.885s5.557,4.068,16.77,7.69,18.605,1.588,24.857,0,16.125-4.664,16.422-4.862,1.042-1.985.695-2.53a52.088,52.088,0,0,0-4.019-3.523s1.885-2.878,1.736-3.969-2.58-1.637-2.58-2.778,3.026-25.5.794-40.535-3.076-14.686-3.671-15.281-7.988-4.217-7.988-4.217,1.092-5.21-.347-6.847-4.614-1.836-6.1-3.324-1.985-4.416-5.358-5.507-9.377-.05-14.338.546a27.338,27.338,0,0,0,9.278,9.526A106.762,106.762,0,0,0,243,156.044c-3.572-7.69-6.748-19.9-6.549-23.12Z" transform="translate(-44.522 461.95)"/><path class="g" d="M271.732,230.619,239.384,245.4c-.05.05-.05.149-.1.2a7.872,7.872,0,0,1-1.985,2.58,10.866,10.866,0,0,0,5.606,1.141c3.622-.4,5.309-.992,10.469-.744s15.331-1.24,17.663-.992,5.16.5,8.186.6,4.465,1.687,7.442,2.927c1.885.744,2.927,2.431,4.664,3.771,2.679-.794,4.664-1.439,4.813-1.538s1.042-1.985.695-2.53a52.089,52.089,0,0,0-4.019-3.523s1.885-2.878,1.737-3.969-2.58-1.637-2.58-2.778,2.183-18.605,1.488-33.142H275.4Z" transform="translate(-50.333 418.235)"/><path class="k" d="M235.2,156.4a49.631,49.631,0,0,0,10.568,16.918" transform="translate(-49.275 443.931)"/><path class="k" d="M294.31,153.195s-2.183-.2-6.8,1.885c-8.335,3.82-24.013,17.167-24.013,17.167" transform="translate(-63.534 445.549)"/><path class="k" d="M247.041,252.193a12.752,12.752,0,0,1,0-2.431,1.141,1.141,0,0,1,1.24-.943,67.757,67.757,0,0,0,11.064-.5c4.862-.744,10.419-1.637,11.709-1.935s2.63,0,3.026.992,2.332,6.946,4.465,9.427a12.817,12.817,0,0,0,5.507,4.068c1.389.447,1.687,1.042,1.836,1.687a48.777,48.777,0,0,0,1.737,6.8" transform="translate(-55.212 398.646)"/><path class="k" d="M294.783,287.145s-7.641,1.985-12.3,2.977-15.728,2.133-21.136,1.488a54.783,54.783,0,0,1-9.377-1.885c-2.927-.695-10.766-3.225-10.766-3.225" transform="translate(-52.298 378.379)"/><path class="k" d="M260.4,193.3s.2,2.679,1.141,9.179,2.778,16.67,2.729,17.762-.695,2.431-.248,3.374,1.042,1.637.695,2.53-.347,1.588.5,4.664.4,4.664,0,7.144-.744,3.275.992,5.954c-2.183,3.721-3.026,4.316-2.878,5.706" transform="translate(-61.972 425.339)"/><path class="g" d="M274.4,124.934a27.535,27.535,0,0,0,8.534,8.286c1.29-1.34,2.431-4.664.546-6.648S277.972,124.388,274.4,124.934Z" transform="translate(-69.026 459.918)"/><path class="f" d="M242.137,129.652a29.62,29.62,0,0,0,3.225,3.076c1.637,1.24,4.118,2.878,4.515,2.828s2.183-6,2.679-8.236.744-4.614.744-4.614.744,5.606.893,5.458a34.675,34.675,0,0,0,0-6.549c-.248-1.885-1.736-11.014-1.736-11.014H240.5Z" transform="translate(-51.945 467.008)"/><path class="l" d="M268.47,182.2l-2.183,1.389s-.347,15.281,2.53,24.956l1.836-.6A70.8,70.8,0,0,1,268.47,182.2Z" transform="translate(-64.931 430.932)"/><path class="l" d="M253.411,185.088l-1.786-1.588s-2.233,16.869-.744,26.891l1.637-.3a134.155,134.155,0,0,1,.893-25.006Z" transform="translate(-56.917 430.277)"/><path class="i" d="M203.388,80.4s.992,9.228,2.183,11.064,1.538,1.042,1.985,2.381c.893,2.679,1.29,4.664,2.481,6s8.782,7.988,9.576,8.682.992.695,1.538.6a13.819,13.819,0,0,0,4.416-1.786c1.191-.943,6.4-6.45,6.9-7.591s1.439-8.931,1.439-8.931,2.878-2.63,3.225-8.484-2.332-14.09-8.682-16.522-13.3-2.183-18.655,1.935S203.239,75.791,203.388,80.4Z" transform="translate(-33.24 490.356)"/><path class="m" d="M209.574,75.573c5.011,5.606,8.633,5.011,8.633,5.011L216.818,78.7a18.8,18.8,0,0,0,4.118.943,3.026,3.026,0,0,1,2.381,2.679c0,1.191-.149,2.481-.149,2.481a4.87,4.87,0,0,0,2.332-3.523c-.05-.943.2-2.53,1.092-2.878s2.183.843,2.53,1.488a19.437,19.437,0,0,1,.843,5.259,5.16,5.16,0,0,1-1.092,3.324,4.763,4.763,0,0,0,3.572,1.885,9.724,9.724,0,0,1,.645-5.656c.943-2.431,1.736-3.721,1.736-4.713a10.52,10.52,0,0,0-1.191-4.564c1.786.05,2.183-.5,2.183-.5-1.24-.695-1.985-1.885-2.381-3.969a10.989,10.989,0,0,0-2.084-5.309,6.135,6.135,0,0,0-4.813-2.084c-.248-1.687-.3-3.324.5-3.523-1.29-.4-2.133.992-1.488,3.126-1.786-1.985-3.076-3.225-6.1-3.473s-9.724-.3-14.983,2.977-6.4,4.316-7.293,6.7-2.58,5.656-2.778,7.194-.3,4.813-.992,5.259a3.671,3.671,0,0,0,2.431-2.034,8.385,8.385,0,0,0,1.389,4.267c1.439,1.985,2.381,2.183,2.381,2.183a14.01,14.01,0,0,1,.4-4.713c1.24,2.53,2.431,4.564,5.507,4.763a7.811,7.811,0,0,1-.2-3.076,3.522,3.522,0,0,0,1.786,1.042,10.22,10.22,0,0,1-.149-2.084C208.185,80.039,209.574,79.1,209.574,75.573Z" transform="translate(-28.213 492.707)"/><path class="n" d="M216.1,121.6a6.8,6.8,0,0,1,.645,3.126c0,1.786-.2,2.977-.1,3.225a4.266,4.266,0,0,0,1.439.943c.3.1,1.141-.248,1.141-.4s-.645-.2-.943-.248a4.267,4.267,0,0,0-.645.149c-.1-.05-.695-.347-.695-.546a23.237,23.237,0,0,0,.1-3.275,5.21,5.21,0,0,0-.943-2.977Z" transform="translate(-39.651 461.466)"/><path class="n" d="M222.8,133.995s-.5-.05-.5-.2.794-.447,1.488-.5A4.019,4.019,0,0,1,222.8,133.995Z" transform="translate(-42.775 455.571)"/><path class="o" d="M225.593,134.7c-.149.843,2.282,2.381,3.87,2.481s2.084-.248,2.58-.943a8.943,8.943,0,0,0,1.29-5.458c-.4-2.034-1.141-1.687-1.637-1.637S226.139,132.371,225.593,134.7Z" transform="translate(-44.431 457.69)"/><path class="p" d="M234.849,136.345c.447-.744,1.687-3.423,1.29-5.458-.2-.992-.5-1.439-.794-1.588a6.8,6.8,0,0,0-4.019,7.789,3.571,3.571,0,0,0,.943.2A2.671,2.671,0,0,0,234.849,136.345Z" transform="translate(-47.237 457.586)"/><path class="l" d="M225.6,134.654h0c.248.1.447.248.6.2s3.82-2.977,5.11-3.92l1.736-1.191a1,1,0,0,0-1.34-.695C231.306,129.1,226.146,132.322,225.6,134.654Z" transform="translate(-44.438 457.739)"/><path class="m" d="M268.274,101.939a6,6,0,0,1-.4,1.985,15.451,15.451,0,0,0-2.729-3.423,37.455,37.455,0,0,1,.843,5.259,5.16,5.16,0,0,1-1.092,3.324,4.763,4.763,0,0,0,3.572,1.885,9.724,9.724,0,0,1,.645-5.656q.3-.843.6-1.488A2.832,2.832,0,0,0,268.274,101.939Z" transform="translate(-64.239 472.097)"/><path class="e" d="M225.5,113.48a11.179,11.179,0,0,1,4.217-2.133,2.431,2.431,0,0,0-1.439-.447,3.324,3.324,0,0,0-2.332,1.042,2.878,2.878,0,0,0-.447,1.538Z" transform="translate(-44.387 466.857)"/><path class="e" d="M211.942,121.592a3.671,3.671,0,0,0-1.042.347,2.133,2.133,0,0,1,.4.695,5.259,5.259,0,0,1,1.687-.794A1.637,1.637,0,0,0,211.942,121.592Z" transform="translate(-37.031 461.474)"/><path class="e" d="M220.44,107.154a23.454,23.454,0,0,1,4.316-5.854,10.9,10.9,0,0,0-4.416,4.465A1.29,1.29,0,0,0,220.44,107.154Z" transform="translate(-41.708 471.694)"/><path class="e" d="M209.777,116.938a1.191,1.191,0,0,0-1.191-.645,10.517,10.517,0,0,0-1.786.2c.1.248.149.5.248.695C208.586,116.987,209.777,116.938,209.777,116.938Z" transform="translate(-34.965 464.143)"/><path class="i" d="M226.485,260.717l-10.865-3.026a13.949,13.949,0,0,0-2.878-.6c-.447.05-5.11,1.885-5.854,2.133a8.534,8.534,0,0,0-2.332,1.935,21.082,21.082,0,0,1-2.729,2.382c-.645.4-.794.843-.149,1.29a2.461,2.461,0,0,0,1.736.149,1.637,1.637,0,0,0,1.637,1.141c1.29,0,2.679-1.042,3.473-1.538l1.935-1.141-1.488,2.133c-.447.645-1.24,1.091-1.092,1.389a2.09,2.09,0,0,0,2.332.3c1.24-.447,1.786-1.687,2.133-1.836a6.55,6.55,0,0,1,1.538-.248,3.275,3.275,0,0,1,1.439.744,17.216,17.216,0,0,0,7.988,3.126c3.92.347,4.614-.744,5.8-.695s28.826-1.389,38.054-2.233V250.1s-17.216,4.565-23.219,6.4C235.664,259.08,229.363,260.618,226.485,260.717Z" transform="translate(-32.175 396.72)"/><path class="j" d="M298.542,210.194s-.6-1.34.546-1.687,6.648-2.034,7.442-2.133a4.564,4.564,0,0,1,1.538,0s-1.191-1.24-.248-1.488,0-.843-.248-1.985,1.29-.794.992-2.381-2.481-14.239-2.58-19.1,1.538-11.411,4.664-14.537,8.385-6.748,9.625-4.961,4.515,12.949,6.5,24.311.347,25.2.4,27.685,1.34,3.076.546,4.813-4.614,2.53-5.408,3.374a3.421,3.421,0,0,1-2.927,1.389c-1.24-.149-2.381-.992-3.275-.5s-1.141,1.24-2.233,1.191-2.828-1.538-2.828-1.538-.447.5-.843.5l-7.492-.1a1.538,1.538,0,0,1-.992-.6A23.717,23.717,0,0,0,298.542,210.194Z" transform="translate(-81.112 441.389)"/><path class="e" d="M205.443,301.514c-.695-2.53-1.935-4.118-2.878-4.118s-2.233.3-3.026-.05a15.545,15.545,0,0,0-3.423-.6c-1.687-.248-7.492.447-9.972-.943s-6.45-4.515-8.633-4.168-9.228,2.282-11.461,2.481-1.538-.794-3.175-1.985a8.533,8.533,0,0,1-1.637-1.637h-9.03c-1.985,0-4.862.943-6.946,6.6s-.843,8.484.347,11.659,3.771,4.416,4.564,5.8,1.687,2.183,4.763,2.183h51.549S206.138,304,205.443,301.514Z" transform="translate(-3.393 376.364)"/><path class="q" d="M265.1,306.077a33.229,33.229,0,0,1,1.29,8.484,51.648,51.648,0,0,1-.447,9.675.844.844,0,0,0,.1.893c.4.4,1.141,1.042,1.637.843a4.267,4.267,0,0,1,1.985-.695c.893,0,4.118-.3,4.862-.3s1.191-2.878,1.29-6.251a36.923,36.923,0,0,0-1.24-10.221c-.645-1.637-.992-1.985-1.687-2.084s-1.191.5-2.431.1a33.938,33.938,0,0,0-3.374-1.141A3.208,3.208,0,0,0,265.1,306.077Z" transform="translate(-64.34 368.874)"/><path class="l" d="M312.6,308.289a29.026,29.026,0,0,1,3.275-.1c.695.1.992.347,1.29,1.29s1.439,4.068,5.458,9.03,5.309,6.251,6.053,9.079a20.278,20.278,0,0,1,.248,9.228c-.645,3.721-1.985,5.507-2.729,5.706s-4.267-.6-4.267-.6Z" transform="translate(-88.273 367.456)"/><path class="r" d="M286,342.1a2.711,2.711,0,0,0,2.034,2.58c2.183.843,4.763.447,8.286,3.771a21.246,21.246,0,0,1,4.565,5.408,4.515,4.515,0,0,0,1.935,1.538l.6-1.538a18.606,18.606,0,0,0-6.549-8.434C292.15,342.2,286,342.1,286,342.1Z" transform="translate(-74.868 350.365)"/><path class="s" d="M285.384,323.969c-1.042-.5-2.679-.992-3.374.3s-.6,4.416-.546,6.152.843,2.63,3.225,3.473,6.9,2.034,9.03,3.721,3.175,2.58,4.118,4.366a11.61,11.61,0,0,0,2.481,3.076l4.068-7.74a92.673,92.673,0,0,0-8.831-8.98C291.982,325.457,285.384,323.969,285.384,323.969Z" transform="translate(-72.567 359.764)"/><path class="r" d="M283.035,309.148a78.544,78.544,0,0,1,14.438-.843,38.055,38.055,0,0,0,5.259,10.072c3.572,4.912,4.316,5.458,5.358,7.492a13.4,13.4,0,0,1,1.29,3.572,30.363,30.363,0,0,1-3.721,1.092,5,5,0,0,1-4.565-.893c-1.29-1.24-3.523-6.3-6.45-7.789s-8.087-3.82-9.774-5.011-2.233-6.4-2.282-7S282.638,309.2,283.035,309.148Z" transform="translate(-73.146 367.44)"/><path class="l" d="M326.872,347.8c-3.026-.05-5.706.447-7.74,4.664s-.3,5.9.5,6.8a10.617,10.617,0,0,0,3.126,2.183,3.87,3.87,0,0,0,2.183.5s2.53-.843,2.927-5.507S328.063,350.426,326.872,347.8Z" transform="translate(-91.085 347.496)"/><path class="l" d="M294.014,326.677a13.971,13.971,0,0,0-2.034,10.469.843.843,0,0,0,.843.149c.05-.3-.695-5.9,2.282-9.923C295.354,326.975,294.56,326.032,294.014,326.677Z" transform="translate(-77.725 358.247)"/><path class="l" d="M302,330.247a13.943,13.943,0,0,0-3.92,9.873c.2.447.794.347.794.347s.4-5.954,4.068-9.377C303.291,330.793,302.7,329.7,302,330.247Z" transform="translate(-80.949 356.413)"/><path class="l" d="M310.164,337.516a11.515,11.515,0,0,0-4.564,8.434c.149.447.744.447.744.447a12.084,12.084,0,0,1,4.664-7.889C311.355,338.26,310.958,337.119,310.164,337.516Z" transform="translate(-84.746 352.717)"/><path class="l" d="M315.767,345.5a9.859,9.859,0,0,0-4.267,7.74c.149.447.744.447.744.447a10.171,10.171,0,0,1,4.366-7.194C317.007,346.191,316.561,345.05,315.767,345.5Z" transform="translate(-87.719 348.705)"/><path class="t" d="M192.6,289.431h36.764s-.943-.992-1.389-1.042-9.278-.695-10.369-.695L192.3,287Z" transform="translate(-27.659 378.128)"/><path class="u" d="M152.333,250.556a.97.97,0,0,1-.893,1.488H126.385a2.58,2.58,0,0,1-2.084-1.488l-15.529-36.268c-.347-.843.05-1.488.843-1.488H134.67a2.481,2.481,0,0,1,2.133,1.488Z" transform="translate(14.491 415.514)"/><path class="l" d="M150.234,250.556c.347.794-.05,1.488-.843,1.488H124.335a2.58,2.58,0,0,1-2.133-1.488l-15.529-36.268c-.347-.843.05-1.488.893-1.488h25.055a2.481,2.481,0,0,1,2.084,1.488Z" transform="translate(15.548 415.514)"/><path class="i" d="M132.147,276.728a12.6,12.6,0,0,1-1.24-.695,1.389,1.389,0,0,1-.2-1.34,11.609,11.609,0,0,1,1.191-2.481,10.962,10.962,0,0,0,.843-1.092c.4-.6.794-.843,1.191-.149a2.932,2.932,0,0,1-.3,2.679,6.549,6.549,0,0,0-.645,1.588,12.849,12.849,0,0,1-.843,1.488Z" transform="translate(3.42 386.415)"/><path class="i" d="M135.363,281.4a11.563,11.563,0,0,1-1.488-.893,1.311,1.311,0,0,1-.1-1.34,17.764,17.764,0,0,1,1.439-2.332,7.346,7.346,0,0,0,.943-1.042c.447-.546.843-.744,1.191-.05a3.031,3.031,0,0,1-.546,2.729,5.459,5.459,0,0,0-.794,1.439Z" transform="translate(1.891 384.021)"/><path class="i" d="M138.748,285.365a9.612,9.612,0,0,1-1.985-.5,1.439,1.439,0,0,1-.1-1.389,13.646,13.646,0,0,1,1.439-2.332c.149-.2.5-.5.943-1.042s.843-.744,1.191,0a2.888,2.888,0,0,1-.546,2.679,5.459,5.459,0,0,0-.794,1.439A2.233,2.233,0,0,0,138.748,285.365Z" transform="translate(0.44 381.846)"/><path class="i" d="M141.645,288.314s-.893.1-1.042-.05a1.141,1.141,0,0,1-.1-1.092,9.278,9.278,0,0,1,1.141-1.786l.744-.794c.347-.447.645-.6.893-.05a2.382,2.382,0,0,1-.4,2.084c-.447.645-.3.992-.5,1.389S141.645,288.314,141.645,288.314Z" transform="translate(-1.513 379.542)"/></g></svg>